<svg xmlns="http://www.w3.org/2000/svg" width="159" height="46" viewBox="0 0 159 46">
  <defs>
    <filter id="a" width="200%" height="200%" x="-50%" y="-50%" filterUnits="objectBoundingBox">
      <feOffset dy="1" in="SourceAlpha" result="shadowOffsetOuter1"/>
      <feColorMatrix values="0 0 0 0 1 0 0 0 0 1 0 0 0 0 1 0 0 0 0.164373868 0" in="shadowOffsetOuter1" result="shadowMatrixOuter1"/>
      <feMerge>
        <feMergeNode in="shadowMatrixOuter1"/>
        <feMergeNode in="SourceGraphic"/>
      </feMerge>
    </filter>
  </defs>
  <g fill="none" fill-rule="evenodd" filter="url(#a)">
    <path fill="#000000" d="M62.2689165 22.8234963C62.2689165 24.9290933 62.8347791 26.6431231 63.9654943 27.9632351 65.1251591 29.3004739 66.5850913 29.9694291 68.3469739 29.9694291 70.229704 29.9694291 71.751238 29.3239813 72.9109028 28.0317425 74.0709042 26.6945037 74.6502317 24.9986082 74.6502317 22.9376754 74.6502317 20.8770784 74.0709042 19.1811828 72.9109028 17.8436082 71.751238 16.5355858 70.2441787 15.8824142 68.394101 15.8824142 66.6453467 15.8824142 65.1870977 16.5449888 64.0099285 17.8644291 62.8506003 19.2023396 62.2689165 20.8559216 62.2689165 22.8234963L62.2689165 22.8234963zM74.3455883 12.044653L79.2858613 12.044653 79.2858613 33.9311082 74.3455883 33.9311082 74.3455883 31.0628619C72.3197936 32.9525261 70.1398257 33.8978619 67.8077045 33.8978619 64.8629301 33.8978619 62.4301587 32.8339813 60.5073705 30.7136082 58.5956909 28.5472276 57.643049 25.8418545 57.643049 22.5974888 57.643049 19.4128993 58.5956909 16.7619291 60.5073705 14.6412201 62.4160206 12.5141306 64.8063775 11.4536082 67.6781048 11.4536082 70.155647 11.4536082 72.380049 12.4714813 74.3455883 14.5089067L74.3455883 12.044653zM100.331269 23.0284478C100.331269 20.9225149 99.7576646 19.2111716 98.6151676 17.8856866 97.4524732 16.5514701 95.9945608 15.8821791 94.2313317 15.8821791 92.3654327 15.8821791 90.8519776 16.5269552 89.6892832 17.8195299 88.5309649 19.1117687 87.9529839 20.8106866 87.9529839 22.9132612 87.9529839 24.974194 88.5309649 26.6707612 89.6892832 28.0083358 90.8361563 29.3153507 92.340186 29.9695299 94.2107977 29.9695299 95.9723437 29.9695299 97.4241969 29.309306 98.5714066 27.9868433 99.7452096 26.6643806 100.331269 25.0104627 100.331269 23.0284478L100.331269 23.0284478zM88.2357469 44.8453881L83.3173543 44.8453881 83.3173543 12.0444179 88.2357469 12.0444179 88.2357469 14.3548657C90.1726732 12.4205373 92.3718285 11.4533731 94.834896 11.4533731 97.7672153 11.4533731 100.176423 12.5323657 102.073965 14.6829627 103.996416 16.8194552 104.958483 19.5154254 104.958483 22.7722164 104.958483 25.9591567 104.004158 28.6131493 102.094162 30.7372164 100.199987 32.8434851 97.8096297 33.8979627 94.9251108 33.8979627 92.4317473 33.8979627 90.2026326 32.9002388 88.2357469 30.9128507L88.2357469 44.8453881zM125.700595 23.0284478C125.700595 20.9225149 125.127326 19.2111716 123.981463 17.8856866 122.825165 16.5514701 121.360856 15.8821791 119.600994 15.8821791 117.735095 15.8821791 116.219956 16.5269552 115.060292 17.8195299 113.897261 19.1117687 113.31928 20.8106866 113.31928 22.9132612 113.31928 24.974194 113.897261 26.6707612 115.060292 28.0083358 116.202452 29.3153507 117.711531 29.9695299 119.580123 29.9695299 121.342006 29.9695299 122.795205 29.309306 123.940732 27.9868433 125.114535 26.6643806 125.700595 25.0104627 125.700595 23.0284478L125.700595 23.0284478zM113.603726 44.8453881L108.687016 44.8453881 108.687016 12.0444179 113.603726 12.0444179 113.603726 14.3548657C115.543682 12.4205373 117.742837 11.4533731 120.204558 11.4533731 123.134857 11.4533731 125.549115 12.5323657 127.44329 14.6829627 129.366078 16.8194552 130.328145 19.5154254 130.328145 22.7722164 130.328145 25.9591567 129.372137 28.6131493 127.463824 30.7372164 125.570995 32.8434851 123.179292 33.8979627 120.291406 33.8979627 117.801409 33.8979627 115.573641 32.9002388 113.603726 30.9128507L113.603726 44.8453881zM135.494191 27.5864776C136.459625 28.348791 137.418662 28.9388284 138.371304 29.3636418 139.322263 29.785097 140.355358 30.002709 141.470925 30.002709 142.641362 30.002709 143.505809 29.7582313 144.063592 29.2759925 144.619356 28.7947612 144.897743 28.1738284 144.897743 27.4145373 144.897743 26.9749478 144.764777 26.5857313 144.501202 26.2515896 144.238973 25.9140896 143.888212 25.6165522 143.448919 25.3539403 143.006597 25.088306 142.510416 24.848194 141.952632 24.6305821 141.395185 24.4106194 140.839085 24.1819254 140.282984 23.9495373 139.583146 23.6849104 138.86109 23.3776343 138.130956 23.0283806 137.396445 22.6754328 136.744071 22.2536418 136.176862 21.7542761 135.603257 21.2599478 135.132659 20.6813284 134.769106 20.0241269 134.401178 19.3679328 134.219401 18.5844627 134.219401 17.6774104 134.219401 15.7800224 134.920923 14.2312164 136.328679 13.032 137.734414 11.8334552 139.65249 11.2367015 142.083915 11.2367015 143.581549 11.2367015 144.924673 11.4993134 146.126752 12.023194 147.329168 12.5504328 148.370342 13.150209 149.24859 13.8215149L146.918488 16.888903C146.157048 16.333791 145.385846 15.8888284 144.610267 15.5506567 143.834352 15.2165149 143.023765 15.0479328 142.172447 15.0479328 141.088522 15.0479328 140.289043 15.2772985 139.77906 15.7286418 139.265374 16.1803209 139.009204 16.7434925 139.009204 17.415806 139.009204 17.8523731 139.134428 18.2291642 139.384202 18.5334179 139.630273 18.840694 139.961846 19.1117015 140.371179 19.3434179 140.782195 19.5791642 141.257506 19.7991269 141.799805 20.0039776 142.341431 20.2088284 142.905611 20.4103209 143.493354 20.6175224 144.221468 20.8801343 144.954632 21.1780075 145.689143 21.5161791 146.422307 21.8503209 147.087473 22.2687537 147.689354 22.7627463 148.286523 23.260097 148.771259 23.8686045 149.136495 24.5855821 149.506106 25.3025597 149.682833 26.1585672 149.682833 27.1492388 149.682833 28.0831567 149.506106 28.9536045 149.136495 29.7582313 148.771259 30.5628582 148.237712 31.262709 147.531478 31.8614776 146.829957 32.4609179 145.951372 32.9334179 144.897743 33.2867015 143.844114 33.6393134 142.641362 33.8129328 141.292515 33.8129328 139.799594 33.8129328 138.32687 33.525806 136.8767 32.9586045 135.42956 32.3880448 134.17665 31.6801343 133.119655 30.8308433L135.494191 27.5864776z"/>
    <polygon fill="#000000" points="23.749 18.097 33.733 33.931 27.621 33.931 19.884 21.697 17.36 23.917 17.357 33.931 12.013 33.931 12.013 0 17.357 0 17.357 20.789"/>
    <path fill="#000000" d="M158.975939 30.2973246C158.975939 31.9153097 157.661428 33.2266903 156.03756 33.2266903 154.416386 33.2266903 153.100528 31.9153097 153.100528 30.2973246 153.100528 28.6773246 154.416386 27.3635933 156.03756 27.3635933 157.661428 27.3635933 158.975939 28.6773246 158.975939 30.2973246M53.4753248 27.9655858C53.3127361 28.2943545 53.1403853 28.604653 52.9633219 28.8968172 52.786595 29.1862948 52.5906807 29.4754366 52.3853409 29.7491306 52.1830307 30.0265187 51.9537907 30.3005485 51.7215211 30.5567799 51.5020432 30.8009216 51.2603482 31.0453993 51.004515 31.2818172 50.7342071 31.5273022 50.4659189 31.7465933 50.195611 31.9453993 49.9175607 32.1532724 49.6284019 32.3503993 49.3409262 32.5206604 49.0487378 32.6986455 48.7407282 32.8642052 48.4293523 33.0092799 48.1038383 33.1603993 47.7783242 33.2927127 47.4558398 33.4001754 47.0818521 33.5324888 46.0231741 33.7971157 45.5367544 33.8521903 45.1240552 33.8978619 44.0165669 33.9311082 43.7432293 33.9311082 43.3833798 33.9311082 43.0211739 33.9106231 42.6609877 33.8662948 42.3183059 33.832041 41.961486 33.7719291 41.607359 33.6899888 41.2599645 33.6140933 40.9155996 33.5150261 40.5836898 33.4001754 40.2679378 33.2896903 39.9424238 33.1603993 39.6199393 33.0092799 39.3136128 32.8642052 39.0056031 32.7020037 38.7070189 32.5206604 38.4239193 32.3520784 38.1350971 32.159653 37.8536806 31.9453993 37.5769769 31.7435709 37.3103718 31.5246157 37.0575682 31.2881978 36.7936561 31.0517799 36.5438822 30.8032724 36.321038 30.5503993 36.0968474 30.3005485 35.8709736 30.0325634 35.6622676 29.7491306 35.458611 29.4754366 35.2579839 29.1832724 35.0762077 28.8843918 34.8964512 28.5865187 34.725447 28.2762201 34.5722837 27.9655858 34.4157542 27.6431978 34.2753826 27.3177873 34.1488125 26.9900261 34.0208959 26.6552127 33.9088006 26.3123396 33.8142096 25.9771903 33.717599 25.6282724 33.6320968 25.2665933 33.5627526 24.9079366 33.4994675 24.5492799 33.4489741 24.1818918 33.4173316 23.8175261 33.3829961 23.4501381 33.3638086 23.0703246 33.3638086 22.6935336 33.3638086 22.3201007 33.3829961 21.940959 33.4173316 21.5728993 33.4489741 21.2142425 33.4994675 20.8441679 33.5657822 20.4798022 33.6320968 20.1268545 33.717599 19.7681978 33.8142096 19.4192799 33.9088006 19.0817799 34.0192128 18.7412575 34.1488125 18.406444 34.2736995 18.0786828 34.4157542 17.7499142 34.5722837 17.4278619 34.7271301 17.1142052 34.8964512 16.8045784 35.0822669 16.5056978 35.2579839 16.2131978 35.4599574 15.9186828 35.667317 15.6412948 35.8676074 15.3699515 36.0921347 15.0959216 36.3277705 14.8366679 36.5580203 14.5868172 36.8017351 14.3399888 37.0511724 14.110959 37.3070056 13.8758843 37.5756304 13.6528993 37.8503144 13.4480485 38.1239886 13.2462201 38.4097811 13.0501007 38.7036527 12.8758097 39.0133454 12.6890933 39.3230382 12.5228619 39.6249887 12.3851754 39.9296321 12.2431231 40.2564926 12.1108097 40.5867194 11.9932724 40.9280547 11.8757351 41.2724196 11.782041 41.607359 11.7041306 41.9581198 11.6252127 42.3152763 11.568459 42.6660371 11.5258097 43.3800136 11.4478993 44.102069 11.4448769 44.8241244 11.5258097 45.1765683 11.568459 45.5317051 11.6252127 45.8807827 11.7041306 46.2160588 11.782041 46.5570575 11.8757351 46.8903138 11.9932724 47.2282829 12.1108097 47.5524505 12.2401007 47.8655095 12.3871903 48.1701529 12.5258843 48.4781626 12.691444 48.780113 12.8727873 49.0773508 13.0531231 49.3692025 13.2462201 49.6442232 13.4567799 49.9047691 13.6465187 50.175077 13.8728619 50.4356229 14.110959 50.6887631 14.3426754 50.9301215 14.5868172 51.1607079 14.8396903 51.3960071 15.098944 51.6222175 15.3733097 51.8292404 15.6506978 52.0251547 15.9153246 52.2224155 16.2078246 52.4089045 16.5087201 52.5795721 16.7918172 52.7472102 17.0903619 52.911482 17.4245037 53.0676749 17.7468918 53.2100662 18.0756604 53.3362997 18.4040933 53.5103335 18.862153 53.6712391 19.4938321 53.7900669 20.1873022 53.9287554 21.0093918 54.0044955 21.8801754 54.0044955 22.6935336L49.3867069 22.6935336C49.3867069 21.9856231 49.3059175 21.3593172 49.2396028 20.9613694 49.1480415 20.4405112 49.0514308 20.1181231 49.021808 20.039541 48.9443848 19.8407351 48.8605658 19.6452873 48.7642918 19.4552127 48.6740769 19.2718545 48.5744366 19.0874888 48.4657075 18.9131978 48.3549587 18.7288321 48.2411803 18.5575634 48.1196595 18.3946903 47.9981388 18.2261082 47.8712321 18.0756604 47.7389394 17.9336082 47.6032805 17.7798022 47.4625722 17.6390933 47.3154682 17.5034216 47.176443 17.3764813 47.0296756 17.2559216 46.8748292 17.1447649 46.7149335 17.0211828 46.5570575 16.9153993 46.3974984 16.8193545 46.2429886 16.7256604 46.0753506 16.6356604 45.9080492 16.5567425 45.7373815 16.4758097 45.5633476 16.409653 45.3893138 16.3465187 45.2193194 16.2890933 45.0436024 16.2377127 44.8601431 16.1984216 44.6787035 16.1534216 44.491878 16.1235336 44.3104384 16.102041 43.9266886 16.06275 43.557077 16.06275 43.1743372 16.102041 42.9942441 16.1235336 42.8094383 16.1534216 42.6249691 16.1984216 42.4415098 16.2377127 42.2661294 16.2890933 42.0937787 16.3488694 41.9221012 16.409653 41.75278 16.4758097 41.5868251 16.5537201 41.4084151 16.6356604 41.2407771 16.7256604 41.0832377 16.8223769 40.9250251 16.9153993 40.7684956 17.0211828 40.6153323 17.1353619 40.4604859 17.2528993 40.3120353 17.3764813 40.1726736 17.5034216 40.0225399 17.6411082 39.8838514 17.7831604 39.7478559 17.9282351 39.6152266 18.0756604 39.4903396 18.2261082 39.3735316 18.3883097 39.245615 18.5575634 39.1318366 18.7264813 39.0258005 18.8984216 38.912022 19.0817799 38.8110353 19.2654739 38.7177908 19.4552127 38.6279126 19.6452873 38.5427471 19.8377127 38.4683535 20.039541 38.3862176 20.244056 38.3182198 20.4492425 38.2566179 20.6665187 38.1980455 20.8770784 38.1492353 21.0913321 38.1098504 21.3112948 38.0684458 21.5366306 38.0337737 21.7626381 38.0145862 21.9920037 37.9927058 22.2270784 37.9832803 22.4587948 37.9832803 22.6935336 37.9832803 22.934653 37.9927058 23.167041 38.0145862 23.3987575 38.0337737 23.6304739 38.0684458 23.8568172 38.1081673 24.076444 38.1492353 24.3058097 38.1980455 24.5163694 38.2566179 24.7272649 38.3182198 24.9442052 38.3862176 25.1524142 38.4649872 25.3569291 38.5427471 25.5557351 38.6279126 25.7518545 38.7208204 25.9442799 38.8110353 26.1309963 38.912022 26.3123396 39.0224342 26.4862948 39.1318366 26.6709963 39.245615 26.8362201 39.3671358 27.0017799 39.4886565 27.1639813 39.6135435 27.3177873 39.7448263 27.4628619 39.8872176 27.6196903 40.0275893 27.7583843 40.1726736 27.8906978 40.3120353 28.0166306 40.4604859 28.1435709 40.6153323 28.2580858 40.7620997 28.366556 40.923342 28.4777127 41.0842476 28.5747649 41.2454898 28.6708097 41.4114447 28.7614813 41.5807659 28.8397276 41.7463842 28.9176381 41.9170518 28.9868172 42.0910857 29.0442425 42.2725253 29.1073769 42.4462225 29.1587575 42.6249691 29.1980485 42.8094383 29.2396903 42.9912145 29.2705858 43.1699611 29.2910709 43.3658754 29.3122276 43.557077 29.3239813 43.7432293 29.3239813 43.9913202 29.3239813 44.8429753 29.2910709 45.03586 29.2705858 45.1809444 29.2494291 45.7942707 29.0989813 45.9632553 29.0442425 46.1322398 28.9868172 46.3042539 28.9152873 46.4702089 28.8363694 46.6331342 28.7614813 46.7990891 28.6738321 46.9599947 28.5747649 47.1259497 28.4777127 47.2821425 28.3699142 47.4373255 28.2580858 47.5904888 28.1405485 47.741969 28.0136082 47.8857068 27.8843172 48.0186727 27.7583843 48.1607275 27.6196903 48.2933568 27.4712575 48.4354115 27.3177873 48.5619816 27.1639813 48.6804727 27.0017799 48.8019935 26.8395784 48.917455 26.6676381 49.0248376 26.4926754 49.1386161 26.3089813 49.2365732 26.1256231 49.3298177 25.9385709L53.4753248 27.9655858z"/>
    <path fill="#000000" d="M35.9071606,20.2749851 L52.8056142,20.2749851 L53.7471475,20.2749851 C53.7471475,20.2749851 53.9588831,21.1212537 54.010723,22.0457687 C54.0851166,23.2782313 54.010723,24.0915896 54.010723,24.0915896 L35.9071606,24.0915896 L35.9071606,20.2749851 Z"/>
    <polygon fill="#FF3C1F" points="0 33.87 7.3 33.87 33.55 8.697 26.299 8.697"/>
  </g>
</svg>
