<?xml version="1.0" encoding="utf-8"?>
<!-- Generator: Adobe Illustrator 27.8.1, SVG Export Plug-In . SVG Version: 6.00 Build 0)  -->
<svg version="1.1" id="Layer_1" xmlns="http://www.w3.org/2000/svg" xmlns:xlink="http://www.w3.org/1999/xlink" x="0px" y="0px"
	 viewBox="0 0 600 300" style="enable-background:new 0 0 600 300;" xml:space="preserve">
<style type="text/css">
	.st0{enable-background:new    ;}
	.st1{fill:#F2644F;}
	.st2{fill:#7ACED3;}
	.st3{font-family:'Poppins-Regular';}
	.st4{font-size:17.9838px;}
	.st5{fill:#FFFFFF;}
</style>
<g class="st0">
	<path class="st1" d="M365.3,186.4c0.4-0.8,0.9-1.4,1.6-1.8c0.7-0.4,1.4-0.6,2.2-0.6c0.7,0,1.3,0.1,1.8,0.4c0.5,0.3,1,0.6,1.3,1.1
		v-4.7h3.1v13.3h-3.1v-1.4c-0.3,0.5-0.7,0.9-1.2,1.2c-0.5,0.3-1.2,0.4-1.9,0.4c-0.8,0-1.6-0.2-2.2-0.6c-0.7-0.4-1.2-1-1.6-1.8
		s-0.6-1.7-0.6-2.7S364.9,187.1,365.3,186.4z M371.6,187.3c-0.4-0.4-0.9-0.7-1.6-0.7s-1.1,0.2-1.6,0.7c-0.4,0.4-0.6,1-0.6,1.8
		c0,0.8,0.2,1.4,0.6,1.8c0.4,0.4,0.9,0.7,1.6,0.7s1.1-0.2,1.6-0.7c0.4-0.4,0.6-1,0.6-1.8C372.2,188.3,372,187.7,371.6,187.3z"/>
	<path class="st1" d="M386.9,189.8h-7c0,0.6,0.2,1.1,0.6,1.4c0.4,0.3,0.8,0.5,1.3,0.5c0.8,0,1.3-0.3,1.6-1h3.3
		c-0.2,0.7-0.5,1.3-0.9,1.8c-0.4,0.5-1,0.9-1.6,1.2c-0.7,0.3-1.4,0.5-2.2,0.5c-1,0-1.9-0.2-2.6-0.6c-0.8-0.4-1.4-1-1.8-1.8
		c-0.4-0.8-0.6-1.7-0.6-2.7s0.2-2,0.6-2.7c0.4-0.8,1-1.4,1.8-1.8c0.8-0.4,1.6-0.6,2.6-0.6c1,0,1.8,0.2,2.6,0.6
		c0.8,0.4,1.3,1,1.8,1.7c0.4,0.8,0.6,1.6,0.6,2.6C387,189.2,387,189.5,386.9,189.8z M383.8,188.1c0-0.5-0.2-0.9-0.5-1.3
		c-0.4-0.3-0.8-0.5-1.3-0.5c-0.5,0-0.9,0.1-1.3,0.5c-0.4,0.3-0.6,0.7-0.7,1.3H383.8z"/>
	<path class="st1" d="M393.1,191.2l2.2-7.2h3.3l-3.6,10h-3.8l-3.6-10h3.3L393.1,191.2z"/>
	<path class="st1" d="M409.3,189.8h-7c0,0.6,0.2,1.1,0.6,1.4c0.4,0.3,0.8,0.5,1.3,0.5c0.8,0,1.3-0.3,1.6-1h3.3
		c-0.2,0.7-0.5,1.3-0.9,1.8c-0.4,0.5-1,0.9-1.6,1.2c-0.7,0.3-1.4,0.5-2.2,0.5c-1,0-1.9-0.2-2.6-0.6c-0.8-0.4-1.4-1-1.8-1.8
		c-0.4-0.8-0.6-1.7-0.6-2.7s0.2-2,0.6-2.7c0.4-0.8,1-1.4,1.8-1.8c0.8-0.4,1.6-0.6,2.6-0.6c1,0,1.8,0.2,2.6,0.6
		c0.8,0.4,1.3,1,1.8,1.7c0.4,0.8,0.6,1.6,0.6,2.6C409.3,189.2,409.3,189.5,409.3,189.8z M406.2,188.1c0-0.5-0.2-0.9-0.5-1.3
		c-0.4-0.3-0.8-0.5-1.3-0.5c-0.5,0-1,0.1-1.3,0.5c-0.4,0.3-0.6,0.7-0.7,1.3H406.2z"/>
	<path class="st1" d="M414,180.8v13.3h-3.1v-13.3H414z"/>
	<path class="st1" d="M418.2,193.6c-0.8-0.4-1.4-1-1.9-1.8c-0.5-0.8-0.7-1.7-0.7-2.7c0-1,0.2-1.9,0.7-2.7c0.5-0.8,1.1-1.4,1.9-1.8
		c0.8-0.4,1.7-0.6,2.7-0.6s1.9,0.2,2.7,0.6c0.8,0.4,1.4,1,1.9,1.8c0.5,0.8,0.7,1.7,0.7,2.7s-0.2,1.9-0.7,2.7
		c-0.5,0.8-1.1,1.4-1.9,1.8c-0.8,0.4-1.7,0.6-2.7,0.6C419.8,194.2,419,194,418.2,193.6z M422.3,190.9c0.4-0.4,0.6-1.1,0.6-1.9
		c0-0.8-0.2-1.4-0.6-1.9c-0.4-0.4-0.9-0.6-1.5-0.6c-0.6,0-1.1,0.2-1.5,0.6c-0.4,0.4-0.6,1-0.6,1.9c0,0.8,0.2,1.4,0.6,1.9
		c0.4,0.4,0.9,0.6,1.5,0.6C421.4,191.6,421.9,191.4,422.3,190.9z"/>
	<path class="st1" d="M432,184.4c0.5-0.3,1.1-0.4,1.9-0.4c0.8,0,1.6,0.2,2.2,0.6c0.7,0.4,1.2,1,1.6,1.8c0.4,0.8,0.6,1.7,0.6,2.7
		s-0.2,1.9-0.6,2.7c-0.4,0.8-0.9,1.4-1.6,1.8c-0.7,0.4-1.4,0.6-2.2,0.6c-0.7,0-1.3-0.1-1.8-0.4c-0.5-0.3-0.9-0.7-1.2-1.1v6.2h-3.1
		v-14.8h3.1v1.4C431.1,185,431.5,184.6,432,184.4z M434.5,187.3c-0.4-0.4-1-0.7-1.6-0.7c-0.6,0-1.1,0.2-1.6,0.7
		c-0.4,0.4-0.6,1.1-0.6,1.8c0,0.8,0.2,1.4,0.6,1.8c0.4,0.4,0.9,0.7,1.6,0.7c0.6,0,1.1-0.2,1.6-0.7c0.4-0.5,0.6-1.1,0.6-1.8
		C435.2,188.3,435,187.7,434.5,187.3z"/>
</g>
<text transform="matrix(1 0 0 1 438.8984 194.1017)" class="st2 st3 st4"> </text>
<g class="st0">
	<path class="st5" d="M453.5,184.2l-5.9,14.5h-1.7l1.9-4.7l-4-9.7h1.8l3.1,8l3.1-8H453.5z"/>
	<path class="st5" d="M457,193.6c-0.7-0.4-1.3-1-1.8-1.8s-0.6-1.7-0.6-2.7c0-1,0.2-1.9,0.7-2.7c0.4-0.8,1-1.4,1.8-1.8
		c0.8-0.4,1.6-0.6,2.5-0.6s1.8,0.2,2.5,0.6c0.8,0.4,1.4,1,1.8,1.8c0.4,0.8,0.7,1.7,0.7,2.7c0,1-0.2,1.9-0.7,2.7
		c-0.5,0.8-1.1,1.4-1.8,1.8c-0.8,0.4-1.6,0.6-2.6,0.6C458.5,194.3,457.7,194.1,457,193.6z M461.1,192.4c0.5-0.3,0.9-0.7,1.3-1.2
		c0.3-0.6,0.5-1.2,0.5-2c0-0.8-0.2-1.5-0.5-2c-0.3-0.6-0.7-1-1.2-1.2c-0.5-0.3-1.1-0.4-1.6-0.4c-0.6,0-1.1,0.1-1.6,0.4
		c-0.5,0.3-0.9,0.7-1.2,1.2c-0.3,0.6-0.5,1.2-0.5,2c0,0.8,0.1,1.5,0.4,2s0.7,1,1.2,1.2c0.5,0.3,1,0.4,1.6,0.4
		C460.1,192.8,460.6,192.7,461.1,192.4z"/>
	<path class="st5" d="M475.4,184.2v9.9h-1.6v-1.5c-0.3,0.5-0.7,0.9-1.3,1.2c-0.6,0.3-1.2,0.4-1.8,0.4c-0.8,0-1.5-0.2-2.1-0.5
		c-0.6-0.3-1.1-0.8-1.4-1.4c-0.4-0.6-0.5-1.4-0.5-2.3v-5.8h1.6v5.6c0,1,0.2,1.7,0.7,2.2c0.5,0.5,1.2,0.8,2,0.8
		c0.9,0,1.6-0.3,2.1-0.8c0.5-0.5,0.8-1.3,0.8-2.4v-5.4H475.4z"/>
	<path class="st5" d="M481.1,184.5c0.5-0.3,1.2-0.5,2-0.5v1.7h-0.4c-1.8,0-2.8,1-2.8,3v5.4h-1.6v-9.9h1.6v1.6
		C480.1,185.3,480.5,184.8,481.1,184.5z"/>
	<path class="st5" d="M492.8,184.6c0.6-0.4,1.4-0.6,2.2-0.6c0.9,0,1.7,0.2,2.4,0.6c0.7,0.4,1.3,1,1.7,1.8c0.4,0.8,0.6,1.6,0.6,2.7
		c0,1-0.2,1.9-0.6,2.7c-0.4,0.8-1,1.4-1.7,1.8c-0.7,0.4-1.5,0.6-2.4,0.6c-0.9,0-1.6-0.2-2.2-0.6c-0.6-0.4-1.1-0.8-1.4-1.4v1.8h-1.6
		v-13.3h1.6v5.3C491.7,185.5,492.2,185,492.8,184.6z M497.6,187.2c-0.3-0.6-0.7-1-1.2-1.3c-0.5-0.3-1.1-0.4-1.7-0.4
		c-0.6,0-1.2,0.1-1.7,0.4c-0.5,0.3-0.9,0.7-1.2,1.3c-0.3,0.6-0.5,1.2-0.5,1.9c0,0.7,0.2,1.4,0.5,2c0.3,0.6,0.7,1,1.2,1.3
		s1.1,0.4,1.7,0.4c0.6,0,1.2-0.1,1.7-0.4c0.5-0.3,0.9-0.7,1.2-1.3c0.3-0.6,0.4-1.2,0.4-2C498,188.4,497.9,187.7,497.6,187.2z"/>
	<path class="st5" d="M510.6,184.2v9.9H509v-1.5c-0.3,0.5-0.7,0.9-1.3,1.2c-0.6,0.3-1.2,0.4-1.8,0.4c-0.8,0-1.5-0.2-2.1-0.5
		c-0.6-0.3-1.1-0.8-1.4-1.4c-0.4-0.6-0.5-1.4-0.5-2.3v-5.8h1.6v5.6c0,1,0.2,1.7,0.7,2.2c0.5,0.5,1.2,0.8,2,0.8
		c0.9,0,1.6-0.3,2.1-0.8c0.5-0.5,0.8-1.3,0.8-2.4v-5.4H510.6z"/>
	<path class="st5" d="M514.8,193.9c-0.6-0.3-1.1-0.6-1.4-1.1c-0.3-0.5-0.5-1-0.6-1.6h1.7c0,0.5,0.3,0.9,0.7,1.2
		c0.4,0.3,1,0.5,1.6,0.5c0.6,0,1.1-0.1,1.5-0.4c0.4-0.3,0.5-0.6,0.5-1c0-0.4-0.2-0.8-0.6-1c-0.4-0.2-1-0.4-1.8-0.6
		c-0.7-0.2-1.3-0.4-1.8-0.6c-0.5-0.2-0.9-0.5-1.2-0.9c-0.3-0.4-0.5-0.9-0.5-1.5c0-0.5,0.2-1,0.5-1.4c0.3-0.4,0.7-0.8,1.3-1
		c0.6-0.2,1.2-0.4,1.9-0.4c1.1,0,2,0.3,2.6,0.8c0.7,0.6,1,1.3,1.1,2.3h-1.6c0-0.5-0.2-0.9-0.6-1.2c-0.4-0.3-0.9-0.5-1.5-0.5
		c-0.6,0-1.1,0.1-1.4,0.4c-0.3,0.2-0.5,0.6-0.5,1c0,0.3,0.1,0.6,0.3,0.8c0.2,0.2,0.5,0.4,0.8,0.5c0.3,0.1,0.8,0.3,1.3,0.4
		c0.7,0.2,1.3,0.4,1.7,0.6c0.4,0.2,0.8,0.5,1.1,0.8c0.3,0.4,0.5,0.9,0.5,1.5c0,0.5-0.2,1-0.5,1.5c-0.3,0.4-0.7,0.8-1.3,1
		c-0.5,0.2-1.2,0.4-1.9,0.4C516.1,194.3,515.4,194.1,514.8,193.9z"/>
	<path class="st5" d="M522.8,182.3c-0.2-0.2-0.3-0.5-0.3-0.8c0-0.3,0.1-0.6,0.3-0.8c0.2-0.2,0.5-0.3,0.8-0.3c0.3,0,0.6,0.1,0.8,0.3
		c0.2,0.2,0.3,0.5,0.3,0.8c0,0.3-0.1,0.6-0.3,0.8c-0.2,0.2-0.5,0.3-0.8,0.3C523.3,182.6,523,182.5,522.8,182.3z M524.4,184.2v9.9
		h-1.6v-9.9H524.4z"/>
	<path class="st5" d="M534.9,185.2c0.7,0.7,1.1,1.8,1.1,3.1v5.8h-1.6v-5.6c0-1-0.2-1.7-0.7-2.3c-0.5-0.5-1.2-0.8-2-0.8
		c-0.9,0-1.6,0.3-2.1,0.8c-0.5,0.5-0.8,1.3-0.8,2.4v5.4h-1.6v-9.9h1.6v1.4c0.3-0.5,0.8-0.9,1.3-1.2c0.6-0.3,1.2-0.4,1.8-0.4
		C533.2,184.1,534.1,184.4,534.9,185.2z"/>
	<path class="st5" d="M547.6,189.8h-7.9c0.1,1,0.4,1.7,1,2.3c0.6,0.5,1.3,0.8,2.2,0.8c0.7,0,1.3-0.2,1.8-0.5c0.5-0.3,0.8-0.8,1-1.3
		h1.8c-0.3,0.9-0.8,1.7-1.6,2.3c-0.8,0.6-1.8,0.9-2.9,0.9c-0.9,0-1.8-0.2-2.5-0.6c-0.7-0.4-1.3-1-1.7-1.8c-0.4-0.8-0.6-1.7-0.6-2.7
		c0-1,0.2-1.9,0.6-2.7c0.4-0.8,1-1.4,1.7-1.8c0.7-0.4,1.6-0.6,2.5-0.6c0.9,0,1.8,0.2,2.5,0.6c0.7,0.4,1.3,1,1.7,1.7
		c0.4,0.7,0.6,1.5,0.6,2.4C547.7,189.1,547.7,189.4,547.6,189.8z M545.6,186.8c-0.3-0.4-0.7-0.8-1.1-1c-0.5-0.2-1-0.4-1.6-0.4
		c-0.8,0-1.5,0.3-2.1,0.8c-0.6,0.5-0.9,1.3-1,2.2h6.2C546,187.8,545.9,187.3,545.6,186.8z"/>
	<path class="st5" d="M551.3,193.9c-0.6-0.3-1.1-0.6-1.4-1.1c-0.3-0.5-0.5-1-0.6-1.6h1.7c0,0.5,0.3,0.9,0.7,1.2
		c0.4,0.3,1,0.5,1.6,0.5c0.6,0,1.1-0.1,1.5-0.4c0.4-0.3,0.5-0.6,0.5-1c0-0.4-0.2-0.8-0.6-1c-0.4-0.2-1-0.4-1.8-0.6
		c-0.7-0.2-1.3-0.4-1.8-0.6c-0.5-0.2-0.9-0.5-1.2-0.9c-0.3-0.4-0.5-0.9-0.5-1.5c0-0.5,0.2-1,0.5-1.4c0.3-0.4,0.7-0.8,1.3-1
		c0.6-0.2,1.2-0.4,1.9-0.4c1.1,0,2,0.3,2.6,0.8c0.7,0.6,1,1.3,1.1,2.3h-1.6c0-0.5-0.2-0.9-0.6-1.2c-0.4-0.3-0.9-0.5-1.5-0.5
		c-0.6,0-1.1,0.1-1.4,0.4c-0.3,0.2-0.5,0.6-0.5,1c0,0.3,0.1,0.6,0.3,0.8c0.2,0.2,0.5,0.4,0.8,0.5c0.3,0.1,0.8,0.3,1.3,0.4
		c0.7,0.2,1.3,0.4,1.7,0.6c0.4,0.2,0.8,0.5,1.1,0.8c0.3,0.4,0.5,0.9,0.5,1.5c0,0.5-0.2,1-0.5,1.5c-0.3,0.4-0.7,0.8-1.3,1
		c-0.5,0.2-1.2,0.4-1.9,0.4C552.6,194.3,551.9,194.1,551.3,193.9z"/>
	<path class="st5" d="M560.7,193.9c-0.6-0.3-1.1-0.6-1.4-1.1c-0.3-0.5-0.5-1-0.6-1.6h1.7c0,0.5,0.3,0.9,0.7,1.2
		c0.4,0.3,1,0.5,1.6,0.5c0.6,0,1.1-0.1,1.5-0.4c0.4-0.3,0.5-0.6,0.5-1c0-0.4-0.2-0.8-0.6-1c-0.4-0.2-1-0.4-1.8-0.6
		c-0.7-0.2-1.3-0.4-1.8-0.6c-0.5-0.2-0.9-0.5-1.2-0.9s-0.5-0.9-0.5-1.5c0-0.5,0.1-1,0.5-1.4c0.3-0.4,0.7-0.8,1.3-1
		c0.6-0.2,1.2-0.4,1.9-0.4c1.1,0,2,0.3,2.6,0.8c0.7,0.6,1,1.3,1.1,2.3h-1.6c0-0.5-0.2-0.9-0.6-1.2c-0.4-0.3-0.9-0.5-1.5-0.5
		c-0.6,0-1.1,0.1-1.4,0.4c-0.4,0.2-0.5,0.6-0.5,1c0,0.3,0.1,0.6,0.3,0.8c0.2,0.2,0.5,0.4,0.8,0.5c0.3,0.1,0.8,0.3,1.3,0.4
		c0.7,0.2,1.3,0.4,1.7,0.6c0.4,0.2,0.8,0.5,1.1,0.8s0.5,0.9,0.5,1.5c0,0.5-0.1,1-0.4,1.5c-0.3,0.4-0.7,0.8-1.3,1
		c-0.5,0.2-1.2,0.4-1.9,0.4C562,194.3,561.3,194.1,560.7,193.9z"/>
</g>
<g>
	<path class="st5" d="M208.3,117.8c14,0,25.1,10.8,25.1,25.1c0,1.3-0.3,2.8-0.3,4.3h-37.8c1.8,6,7.3,10.5,14,10.5
		c4.5,0,8.5-2,11.3-5l11,3.3c-4.3,7.5-12.5,12.3-22.3,12.3c-14.5,0-25.8-10.8-25.8-25.1C183.5,128.6,194.3,117.8,208.3,117.8
		 M195.3,138.4h26.3c-1.8-6-7-10-13.3-10C202.3,128.4,197,132.4,195.3,138.4"/>
	<rect x="239.4" y="104.5" class="st5" width="11.5" height="62.2"/>
	<path class="st5" d="M307.1,142.9c0,14.3-10.8,25.1-25.3,25.1c-14.3,0-25.1-10.8-25.1-25.1s10.8-25.1,25.1-25.1
		S307.1,128.6,307.1,142.9 M281.8,156.7c7.5,0,13.3-6,13.3-13.8c0-7.8-5.8-13.8-13.3-13.8c-7.5,0-13.3,6-13.3,13.8
		C268.2,150.7,274.2,156.7,281.8,156.7"/>
	<path class="st5" d="M312.1,142.9c0-14.3,10.8-25.1,25.1-25.1c11,0,19.8,6.3,23.6,15.8l-11.5,3.5c-2-4.8-6.5-7.8-12-7.8
		c-7.5,0-13.3,6-13.3,13.8c0,7.8,5.8,13.8,13.3,13.8c5.5,0,10-3,12-7.8l11.5,3.5c-3.8,9.5-12.5,15.8-23.6,15.8
		C322.9,168.2,312.1,157.4,312.1,142.9"/>
	<rect x="368" y="134.6" class="st5" width="11.5" height="32.1"/>
	<path class="st5" d="M439.2,117.8c14,0,25.1,10.8,25.1,25.1c0,1.3-0.3,2.8-0.3,4.3h-37.8c1.8,6,7,10.5,14,10.5c4.5,0,8.5-2,11.3-5
		l11,3.3c-4.3,7.5-12.5,12.3-22.3,12.3c-14.5,0-25.8-10.8-25.8-25.1C414.1,128.6,424.9,117.8,439.2,117.8 M426.1,138.4h26.3
		c-1.8-6-7-10-13.3-10C432.9,128.4,427.9,132.4,426.1,138.4"/>
	<path class="st5" d="M468.2,142.9c0-14.3,10.8-25.1,25.1-25.1c11,0,19.8,6.3,23.6,15.8l-11.5,3.5c-2-4.8-6.5-7.8-12-7.8
		c-7.5,0-13.3,6-13.3,13.8c0,7.8,5.8,13.8,13.3,13.8c5.5,0,10-3,12-7.8l11.5,3.5c-3.8,9.5-12.5,15.8-23.6,15.8
		C479.3,168.2,468.2,157.4,468.2,142.9"/>
	<path class="st5" d="M533.2,104.5v20.3c2-3,6.8-7.3,14.8-7.3c11,0,19,8,19,18.5v30.3h-11.3v-26.8c0-6.3-4.8-10.8-11.3-10.8
		s-11.3,4.8-11.3,10.8V167h-11.3v-62.4H533.2z"/>
	<path class="st5" d="M366.7,124.1L366.7,124.1c0-2.8,2.3-5,5-5H387v-14.5h11.5v14.5h11.8v10h-11.8v20.8c0,3.3,2.5,5.8,5.8,5.8h6
		v10.8h-7c-9.3,0-16.3-6.5-16.3-15v-22.6h-15.3C369,129.1,366.7,126.9,366.7,124.1"/>
	<path class="st5" d="M145.9,119.1l13.3,33.3l13.3-33.3h11.8L166,163c-1.3,3-3.5,5.3-7,5.3c-3.3,0-5.8-2-7-5.3l-18-43.9
		C133.9,119.1,145.9,119.1,145.9,119.1z"/>
</g>
<g id="SvgjsG2825_00000038395907006425888420000010279652106427406979_" transform="matrix(0.8101851851851851,0,0,0.8101851851851851,-8.101846443282232,-9.722172772442851)">
	<g transform="translate(0,-952.36218)">
		<path class="st1" d="M126.8,1082.8l45.4,1.5l-45.4,43.4V1082.8z M123.6,1085.4v44.6H81.4C95.7,1115.4,109.5,1100.4,123.6,1085.4z
			 M169.7,1091.4l5.8,2l-21.1,12.5L169.7,1091.4z M55.9,1096.4h9.3l21.6,23.6l-10,10.3H55.9C55.9,1118.7,55.9,1107.7,55.9,1096.4z
			 M52.6,1098.4v9.8H42.1L52.6,1098.4z M58.4,1133.5h64.4l-18,49.1L58.4,1133.5z M123.6,1141v68.7l-21.1-11.5
			C109.5,1179.1,116.5,1160,123.6,1141L123.6,1141z"/>
	</g>
</g>
</svg>
